<svg xmlns="http://www.w3.org/2000/svg" xmlns:xlink="http://www.w3.org/1999/xlink" viewBox="0 0 655.19 470.77"><defs><style>.cls-1{fill:#417c7c;}.cls-2{fill:url(#linear-gradient);}.cls-3{fill:#336667;}.cls-4{fill:#cccccb;}.cls-5{fill:url(#linear-gradient-2);}.cls-6{fill:url(#linear-gradient-3);}.cls-7{fill:url(#linear-gradient-4);}.cls-8{fill:url(#linear-gradient-5);}.cls-9{fill:url(#linear-gradient-6);}.cls-10{fill:url(#linear-gradient-7);}.cls-11{fill:url(#linear-gradient-8);}.cls-12{fill:url(#linear-gradient-9);}.cls-13{fill:url(#linear-gradient-10);}.cls-14{fill:url(#linear-gradient-11);}.cls-15{fill:url(#linear-gradient-12);}.cls-16{fill:url(#linear-gradient-13);}.cls-17{fill:url(#linear-gradient-14);}.cls-18{fill:url(#linear-gradient-15);}.cls-19{fill:url(#linear-gradient-16);}.cls-20{fill:url(#linear-gradient-17);}.cls-21{fill:url(#linear-gradient-18);}.cls-22{fill:url(#linear-gradient-19);}.cls-23{fill:url(#linear-gradient-20);}.cls-24{fill:url(#linear-gradient-21);}.cls-25{fill:url(#linear-gradient-22);}.cls-26{fill:url(#linear-gradient-23);}.cls-27{fill:url(#linear-gradient-24);}.cls-28{fill:url(#linear-gradient-25);}.cls-29{fill:url(#linear-gradient-26);}.cls-30{fill:url(#linear-gradient-27);}.cls-31{fill:url(#linear-gradient-28);}.cls-32{fill:url(#linear-gradient-29);}.cls-33{fill:url(#linear-gradient-30);}.cls-34{fill:url(#linear-gradient-31);}.cls-35{fill:url(#linear-gradient-32);}.cls-36{fill:url(#linear-gradient-33);}.cls-37{fill:url(#linear-gradient-34);}.cls-38{fill:url(#linear-gradient-35);}</style><linearGradient id="linear-gradient" x1="90.03" y1="85.53" x2="212.5" y2="14.55" gradientUnits="userSpaceOnUse"><stop offset="0.26" stop-color="#729392"/><stop offset="0.41" stop-color="#779b9a"/><stop offset="0.65" stop-color="#7ca3a2"/></linearGradient><linearGradient id="linear-gradient-2" x1="197.28" y1="125.89" x2="89.52" y2="142.44" gradientUnits="userSpaceOnUse"><stop offset="0.27" stop-color="#417c7c"/><stop offset="0.42" stop-color="#5e8f8f"/><stop offset="0.58" stop-color="#749e9d"/><stop offset="0.67" stop-color="#7ca3a2"/><stop offset="0.97" stop-color="#7ca3a2"/></linearGradient><linearGradient id="linear-gradient-3" x1="323.14" y1="194.4" x2="261.71" y2="122.88" gradientUnits="userSpaceOnUse"><stop offset="0.28" stop-color="#7ca3a2"/><stop offset="0.42" stop-color="#709b9b"/><stop offset="0.67" stop-color="#528787"/><stop offset="0.78" stop-color="#417c7c"/></linearGradient><linearGradient id="linear-gradient-4" x1="0.65" y1="61.86" x2="86.77" y2="61.86" gradientUnits="userSpaceOnUse"><stop offset="0" stop-color="#cccccb"/><stop offset="1" stop-color="#59595b"/></linearGradient><linearGradient id="linear-gradient-5" x1="0.65" y1="92.93" x2="103.25" y2="92.93" gradientUnits="userSpaceOnUse"><stop offset="0.16" stop-color="#cccccb"/><stop offset="0.89" stop-color="#59595b"/></linearGradient><linearGradient id="linear-gradient-6" x1="153.74" y1="134.34" x2="236" y2="100.28" gradientUnits="userSpaceOnUse"><stop offset="0" stop-color="#7ca3a2"/><stop offset="1" stop-color="#417c7c"/></linearGradient><linearGradient id="linear-gradient-7" x1="244.42" y1="32.47" x2="292.35" y2="32.47" gradientUnits="userSpaceOnUse"><stop offset="0" stop-color="#9a9997"/><stop offset="1" stop-color="#cccccb"/></linearGradient><linearGradient id="linear-gradient-8" x1="205.85" y1="140.59" x2="301.46" y2="81.15" gradientUnits="userSpaceOnUse"><stop offset="0.32" stop-color="#417c7c"/><stop offset="1" stop-color="#9cc"/></linearGradient><linearGradient id="linear-gradient-9" x1="211.04" y1="71.43" x2="291.76" y2="71.43" gradientUnits="userSpaceOnUse"><stop offset="0" stop-color="#729392"/><stop offset="1" stop-color="#9cc"/></linearGradient><linearGradient id="linear-gradient-10" x1="213.64" y1="122.79" x2="82.57" y2="171.2" gradientUnits="userSpaceOnUse"><stop offset="0.3" stop-color="#9a9997"/><stop offset="0.51" stop-color="#a5a4a3"/><stop offset="0.89" stop-color="#c3c2c1"/><stop offset="1" stop-color="#cccccb"/></linearGradient><linearGradient id="linear-gradient-11" x1="-7.16" y1="151.96" x2="102.8" y2="139.69" xlink:href="#linear-gradient-10"/><linearGradient id="linear-gradient-12" x1="99.34" y1="140.06" x2="141.9" y2="155.89" gradientUnits="userSpaceOnUse"><stop offset="0.3" stop-color="#737577"/><stop offset="0.44" stop-color="#7f8082"/><stop offset="0.69" stop-color="#9d9e9f"/><stop offset="1" stop-color="#cccccb"/></linearGradient><linearGradient id="linear-gradient-13" x1="142.21" y1="174.02" x2="266.88" y2="174.02" gradientUnits="userSpaceOnUse"><stop offset="0.28" stop-color="#cccccb"/><stop offset="0.43" stop-color="#c1c1bf"/><stop offset="0.71" stop-color="#a3a3a1"/><stop offset="0.78" stop-color="#9a9997"/></linearGradient><linearGradient id="linear-gradient-14" x1="229.79" y1="246.3" x2="299.63" y2="200.63" xlink:href="#linear-gradient-3"/><linearGradient id="linear-gradient-15" x1="450.1" y1="412.85" x2="332.78" y2="503.41" gradientUnits="userSpaceOnUse"><stop offset="0.28" stop-color="#737577"/><stop offset="0.38" stop-color="#6a6b6d"/><stop offset="0.61" stop-color="#59595b"/></linearGradient><linearGradient id="linear-gradient-16" x1="154.5" y1="240.65" x2="264.7" y2="182.35" xlink:href="#linear-gradient-4"/><linearGradient id="linear-gradient-17" x1="258.83" y1="244.54" x2="329.9" y2="294.74" gradientUnits="userSpaceOnUse"><stop offset="0" stop-color="#417c7c"/><stop offset="0.64" stop-color="#6a9796"/><stop offset="1" stop-color="#7ca3a2"/></linearGradient><linearGradient id="linear-gradient-18" x1="295.59" y1="261.59" x2="333.64" y2="215.66" gradientUnits="userSpaceOnUse"><stop offset="0" stop-color="#7ca3a2"/><stop offset="0.51" stop-color="#8cbaba"/><stop offset="1" stop-color="#9cc"/></linearGradient><linearGradient id="linear-gradient-19" x1="622.29" y1="405.04" x2="648.28" y2="369.15" gradientUnits="userSpaceOnUse"><stop offset="0" stop-color="#737577"/><stop offset="0.48" stop-color="#888"/><stop offset="1" stop-color="#9a9997"/></linearGradient><linearGradient id="linear-gradient-20" x1="428.85" y1="477.49" x2="462.67" y2="454.16" gradientUnits="userSpaceOnUse"><stop offset="0" stop-color="#7ca3a2"/><stop offset="0.64" stop-color="#538888"/><stop offset="1" stop-color="#417c7c"/></linearGradient><linearGradient id="linear-gradient-21" x1="540.99" y1="352.29" x2="498.63" y2="434.82" gradientUnits="userSpaceOnUse"><stop offset="0.34" stop-color="#7ca3a2"/><stop offset="0.76" stop-color="#538888"/><stop offset="1" stop-color="#417c7c"/></linearGradient><linearGradient id="linear-gradient-22" x1="411.34" y1="405.21" x2="451.98" y2="377.16" xlink:href="#linear-gradient-20"/><linearGradient id="linear-gradient-23" x1="655.31" y1="468.95" x2="654.58" y2="468.18" xlink:href="#linear-gradient-19"/><linearGradient id="linear-gradient-24" x1="653.62" y1="445.03" x2="609.8" y2="398.05" xlink:href="#linear-gradient-19"/><linearGradient id="linear-gradient-25" x1="530.45" y1="487.75" x2="628.14" y2="424.54" gradientUnits="userSpaceOnUse"><stop offset="0" stop-color="#59595b"/><stop offset="0.31" stop-color="#626365"/><stop offset="1" stop-color="#737577"/></linearGradient><linearGradient id="linear-gradient-26" x1="325.25" y1="339.25" x2="417.32" y2="315.31" gradientUnits="userSpaceOnUse"><stop offset="0" stop-color="#729392"/><stop offset="0.63" stop-color="#8dbaba"/><stop offset="1" stop-color="#9cc"/></linearGradient><linearGradient id="linear-gradient-27" x1="261.77" y1="303.9" x2="301.72" y2="276.33" xlink:href="#linear-gradient-20"/><linearGradient id="linear-gradient-28" x1="338.39" y1="380.51" x2="206.97" y2="454.24" gradientUnits="userSpaceOnUse"><stop offset="0.35" stop-color="#737577"/><stop offset="0.5" stop-color="#6a6b6d"/><stop offset="0.84" stop-color="#59595b"/></linearGradient><linearGradient id="linear-gradient-29" x1="293.16" y1="349.38" x2="333.11" y2="321.81" xlink:href="#linear-gradient-20"/><linearGradient id="linear-gradient-30" x1="298.2" y1="390.07" x2="379.9" y2="364.91" gradientUnits="userSpaceOnUse"><stop offset="0" stop-color="#cccccb"/><stop offset="0.23" stop-color="#b5b5b5"/><stop offset="0.74" stop-color="#858788"/><stop offset="1" stop-color="#737577"/></linearGradient><linearGradient id="linear-gradient-31" x1="397.69" y1="393.36" x2="425.85" y2="373.93" xlink:href="#linear-gradient-20"/><linearGradient id="linear-gradient-32" x1="527.27" y1="495.67" x2="498.06" y2="393.6" gradientUnits="userSpaceOnUse"><stop offset="0" stop-color="#7ca3a2"/><stop offset="0.34" stop-color="#67bab8"/><stop offset="0.59" stop-color="#4c8e8e"/><stop offset="0.73" stop-color="#417c7c"/></linearGradient><linearGradient id="linear-gradient-33" x1="144" y1="142.83" x2="6.96" y2="213.35" gradientUnits="userSpaceOnUse"><stop offset="0.28" stop-color="#737577"/><stop offset="0.44" stop-color="#888"/><stop offset="0.61" stop-color="#9a9997"/></linearGradient><linearGradient id="linear-gradient-34" x1="199.3" y1="469.94" x2="200.4" y2="468.17" gradientUnits="userSpaceOnUse"><stop offset="0" stop-color="#417c7c"/><stop offset="0.58" stop-color="#729392"/><stop offset="0.58" stop-color="#729392"/><stop offset="0.79" stop-color="#578686"/><stop offset="0.98" stop-color="#417c7c"/></linearGradient><linearGradient id="linear-gradient-35" x1="191.55" y1="413.41" x2="259.35" y2="304.78" xlink:href="#linear-gradient-34"/></defs><title>Asset 2smallerSVG</title><g id="Layer_2" data-name="Layer 2"><g id="Layer_1-2" data-name="Layer 1"><polygon class="cls-1" points="83.77 31.17 103.89 122.08 158.44 1.3 92.21 1.3 83.77 31.17"/><polygon class="cls-2" points="103.89 122.08 211.69 53.25 245.45 1.3 158.44 1.3 103.89 122.08"/><polygon class="cls-3" points="0 1.3 0.65 1.99 0.65 1.28 0 1.3"/><polygon class="cls-3" points="41.56 0 20.78 0.65 41.81 0.65 41.56 0"/><polygon class="cls-3" points="41.81 0.65 20.78 0.65 0.65 1.28 0.65 1.99 72.73 79.22 41.81 0.65"/><polygon class="cls-4" points="0.65 84.65 0.65 116.66 103.89 120.78 0.65 84.65"/><polygon class="cls-5" points="103.89 122.08 243.5 155.19 141.56 98.05 103.89 122.08"/><polygon class="cls-6" points="285.06 221.43 339.61 142.21 243.23 155.24 285.06 221.43"/><polygon class="cls-1" points="90.32 49.65 105.48 0.65 38.28 0.65 79.37 85.06 90.32 49.65"/><polygon class="cls-7" points="87.01 46.75 0.65 1.64 0.65 64.72 103.89 122.08 87.01 46.75"/><polygon class="cls-8" points="0.65 64.43 0.65 85.43 103.25 121.43 0.65 64.43"/><polygon class="cls-9" points="140.91 98.05 243.5 155.19 211.04 52.6 140.91 98.05"/><polygon class="cls-10" points="292.35 0.65 244.42 0.65 266.88 64.28 292.35 0.65"/><polygon class="cls-11" points="243.5 155.19 339.61 142.21 211.04 52.6 243.5 155.19"/><polygon class="cls-12" points="339.61 142.21 244.8 0.65 211.04 52.6 339.61 142.21"/><polygon class="cls-13" points="142.21 173.37 243.5 155.19 103.25 120.13 142.21 173.37"/><polygon class="cls-14" points="103.25 120.13 0.65 115.2 0.65 186.97 96.75 160.39 103.25 120.13"/><polygon class="cls-15" points="96.75 160.47 142.21 173.37 103.21 120.13 96.75 160.47"/><polygon class="cls-16" points="142.21 173.37 266.88 192.85 243.5 155.19 142.21 173.37"/><polygon class="cls-17" points="237.01 270.77 285.06 221.43 266.88 192.85 237.01 270.77"/><polygon class="cls-18" points="303.85 468.18 453 468.18 399.35 409.08 303.85 468.18"/><polygon class="cls-19" points="237.01 270.77 266.88 192.85 142.21 173.37 237.01 270.77"/><polygon class="cls-20" points="237.01 270.77 324.02 288.96 285.06 221.43 237.01 270.77"/><polygon class="cls-21" points="285.06 221.43 324.02 288.96 320.17 170.23 285.06 221.43"/><polygon class="cls-22" points="655.19 424.02 655.19 368.18 586.36 390.25 655.19 424.02"/><polygon class="cls-23" points="407.59 468.18 483.85 468.18 425.32 451.29 407.59 468.18"/><polygon class="cls-24" points="425.32 451.29 586.36 390.25 469.47 382.46 425.32 451.29"/><polygon class="cls-25" points="425.32 451.29 469.47 382.46 416.23 346.1 425.32 451.29"/><polygon class="cls-26" points="655.19 469.47 655.19 468.18 654.06 468.18 655.19 469.47"/><polygon class="cls-27" points="654.06 468.18 655.19 468.18 655.19 424.02 586.36 390.25 654.06 468.18"/><polygon class="cls-28" points="655.19 466.38 586.65 390.25 491.13 468.18 655.19 468.18 655.19 466.38"/><polygon class="cls-29" points="370.8 368.18 416.23 368.18 321.42 287.66 370.8 368.18"/><polygon class="cls-30" points="273.37 346.1 273.73 345.7 324.02 288.96 237.01 270.77 273.37 346.1"/><polygon class="cls-31" points="275.3 346.1 200.93 468.18 306.56 468.18 404.54 409.08 275.3 346.1"/><polygon class="cls-32" points="273.37 346.1 356.49 344.8 324.02 288.96 273.37 346.1"/><polygon class="cls-33" points="273.37 346.1 401.94 409.74 356.49 344.8 273.37 346.1"/><polygon class="cls-34" points="356.49 344.8 425.32 451.29 416.23 346.1 356.49 344.8"/><polygon class="cls-35" points="425.32 451.29 483.85 468.18 495.87 468.18 586.36 390.25 425.32 451.29"/><polygon class="cls-36" points="96.75 160.39 0.65 186.97 0.65 190.93 142.21 173.37 96.75 160.39"/><polygon class="cls-37" points="199.35 470.77 200.93 468.18 199.84 468.18 199.35 470.77"/><polygon class="cls-38" points="273.37 346.1 237.01 270.77 199.84 468.18 200.93 468.18 275.3 346.1 273.37 346.1"/></g></g></svg>